<?xml version="1.0" encoding="iso-8859-1"?>
<!-- Generator: Adobe Illustrator 18.1.1, SVG Export Plug-In . SVG Version: 6.00 Build 0)  -->
<svg version="1.1" id="Capa_1" xmlns="http://www.w3.org/2000/svg" xmlns:xlink="http://www.w3.org/1999/xlink" x="0px" y="0px"
	 viewBox="0 0 16.586 16.586" style="enable-background:new 0 0 16.586 16.586;" xml:space="preserve">
<g>
	<g>
		<path style="fill:#030104;" d="M15.159,0H1.426C0.64,0,0,0.64,0,1.426v13.733c0,0.787,0.64,1.427,1.426,1.427h13.733
			c0.787,0,1.427-0.64,1.427-1.427V1.426C16.586,0.64,15.946,0,15.159,0z M15.364,15.159c0,0.113-0.093,0.204-0.205,0.204H1.426
			c-0.112,0-0.204-0.091-0.204-0.204V1.426c0-0.112,0.092-0.204,0.204-0.204h13.733c0.112,0,0.205,0.092,0.205,0.204V15.159z"/>
		<path style="fill:#030104;" d="M10.526,7.51c-0.7-0.547-1.779-0.751-2.309-0.766c-0.133,0-0.266,0-0.379,0l0.283-1.815h3.257
			V3.144H6.286L5.604,8.247c0.247-0.032,0.531-0.032,0.871-0.032c1.42,0,2.667,0.454,2.667,1.815c0,1.095-0.793,1.737-2.004,1.737
			c-0.663,0-1.307-0.173-1.759-0.36l-0.38,1.627c0.492,0.22,1.438,0.407,2.309,0.407c2.688,0,4.278-1.612,4.278-3.6
			C11.586,8.824,11.207,8.058,10.526,7.51z"/>
	</g>
</g>
<g>
</g>
<g>
</g>
<g>
</g>
<g>
</g>
<g>
</g>
<g>
</g>
<g>
</g>
<g>
</g>
<g>
</g>
<g>
</g>
<g>
</g>
<g>
</g>
<g>
</g>
<g>
</g>
<g>
</g>
</svg>
