<?xml version="1.0" standalone="no"?>
<!DOCTYPE svg PUBLIC "-//W3C//DTD SVG 20010904//EN"
 "http://www.w3.org/TR/2001/REC-SVG-20010904/DTD/svg10.dtd">
<svg version="1.0" xmlns="http://www.w3.org/2000/svg"
 width="1280.000000pt" height="1264.000000pt" viewBox="0 0 1280.000000 1264.000000"
 preserveAspectRatio="xMidYMid meet">
<metadata>
Created by potrace 1.15, written by Peter Selinger 2001-2017
</metadata>
<g transform="translate(0.000000,1264.000000) scale(0.100000,-0.100000)"
fill="#000000" stroke="none">
<path d="M11601 12614 c-93 -24 -221 -74 -311 -119 l-47 -24 -199 26 -199 25
-155 -17 c-222 -24 -247 -30 -254 -63 -12 -61 -26 -159 -26 -189 0 -53 30 -42
78 27 24 33 61 72 83 87 34 22 46 25 92 20 68 -8 158 -38 170 -57 13 -22 -6
-84 -50 -159 -41 -69 -101 -121 -140 -121 -32 0 -81 25 -123 65 -19 18 -43 35
-52 38 -22 8 -47 -17 -43 -40 17 -82 31 -142 55 -229 16 -56 34 -144 40 -196
22 -172 4 -351 -30 -298 -5 8 -10 40 -10 72 0 116 -35 246 -140 516 l-63 163
48 154 c26 84 44 159 39 166 -13 22 -550 -5 -619 -31 -18 -7 -25 -17 -25 -35
0 -29 -7 -31 -46 -10 -16 8 -40 15 -54 15 -60 0 -305 -128 -502 -263 -91 -62
-125 -80 -150 -79 -21 1 -48 -9 -72 -26 -73 -50 -394 -411 -531 -597 -33 -44
-98 -132 -145 -195 -83 -111 -102 -145 -114 -201 -4 -16 -19 -35 -40 -47 -25
-15 -35 -29 -40 -58 -4 -20 -21 -71 -38 -113 -20 -49 -31 -95 -32 -129 -1 -44
-5 -56 -26 -72 -23 -17 -23 -20 -8 -37 26 -28 25 -42 -2 -56 -32 -16 -79 -102
-64 -117 6 -6 58 -20 116 -30 177 -32 255 -66 361 -159 72 -63 72 -63 212
-112 149 -51 270 -106 480 -218 186 -99 203 -105 465 -146 449 -70 729 -146
1020 -275 177 -78 330 -189 330 -240 0 -10 -14 -33 -32 -50 -27 -27 -36 -31
-66 -25 -35 7 -261 92 -437 165 -136 56 -263 91 -575 156 -481 100 -541 118
-800 242 -91 43 -220 100 -288 126 -198 77 -326 174 -324 246 1 35 5 34 -66
14 -70 -21 -125 -14 -257 28 -91 30 -102 36 -117 68 -12 23 -18 58 -18 104 0
67 0 69 -19 52 -49 -44 -97 -222 -80 -292 9 -35 7 -49 -14 -100 -14 -33 -30
-95 -36 -139 -6 -44 -23 -137 -38 -208 -23 -112 -25 -130 -12 -155 7 -15 15
-30 17 -34 2 -5 -4 -8 -13 -8 -14 0 -16 -7 -12 -37 4 -29 -1 -47 -20 -75 -15
-23 -29 -63 -36 -107 -10 -70 -10 -71 21 -121 37 -60 39 -71 12 -95 -24 -22
-26 -51 -4 -73 28 -28 11 -108 -46 -217 -49 -93 -61 -137 -40 -150 63 -39
-183 -368 -391 -525 -267 -200 -414 -242 -1063 -300 -515 -47 -746 -79 -981
-140 -144 -37 -184 -53 -515 -203 -329 -149 -384 -176 -490 -244 -154 -100
-328 -304 -565 -663 -184 -278 -262 -439 -360 -735 -37 -110 -116 -311 -190
-480 -141 -321 -185 -430 -317 -775 -128 -336 -140 -371 -127 -386 8 -10 1
-19 -28 -37 -117 -74 -134 -77 -491 -87 -285 -8 -334 -11 -321 -24 2 -2 178
-8 392 -12 213 -4 387 -10 387 -14 0 -17 -273 -54 -510 -70 -278 -19 -564 -41
-568 -44 -8 -9 200 -22 555 -36 338 -12 339 -30 3 -67 -164 -18 -689 -25 -742
-10 -16 4 -28 3 -28 -1 0 -8 198 -61 293 -78 20 -3 40 -11 44 -17 9 -15 -124
-1 -312 33 -185 33 -242 39 -236 25 8 -20 434 -166 547 -189 44 -8 147 -22
229 -32 83 -9 154 -20 160 -25 12 -12 -245 -11 -595 2 -355 13 -595 9 -564 -8
37 -21 170 -32 524 -43 190 -6 374 -15 410 -19 l65 -8 -70 -2 c-98 -2 -353
-26 -525 -50 -163 -23 -283 -34 -612 -56 -248 -17 -325 -28 -347 -50 -13 -13
-12 -17 3 -34 10 -10 40 -29 68 -41 63 -27 229 -70 272 -70 42 0 76 -10 76
-23 0 -6 -35 -8 -101 -4 -169 9 -429 -16 -429 -42 0 -10 59 -38 145 -68 87
-31 283 -42 401 -23 101 16 430 112 474 138 36 21 117 45 200 58 178 27 -301
-158 -610 -237 -164 -41 -267 -46 -482 -20 -97 11 -183 21 -192 21 -33 0 -14
-18 67 -63 90 -51 137 -91 121 -107 -5 -5 -37 -13 -71 -19 -34 -5 -72 -15 -85
-22 l-22 -12 34 -28 c113 -95 405 -39 889 171 79 34 175 73 215 86 69 23 70
23 46 3 -57 -48 -616 -312 -782 -369 -38 -13 -68 -27 -68 -32 0 -12 130 -9
280 7 156 17 249 19 270 5 20 -13 -14 -48 -110 -113 -164 -109 -162 -135 7
-76 124 44 226 99 313 170 76 62 332 197 570 301 125 54 150 62 150 50 0 -12
-103 -79 -330 -214 -188 -113 -347 -220 -447 -300 -66 -54 -83 -78 -56 -78 22
0 188 89 277 149 118 79 209 130 315 176 55 24 122 58 148 76 58 41 410 384
546 534 63 70 145 178 222 295 68 102 151 226 186 275 121 176 199 374 304
775 143 545 267 820 369 820 19 0 37 -54 81 -245 44 -187 100 -355 145 -428
34 -57 134 -186 341 -443 240 -298 264 -340 262 -454 -2 -95 -40 -229 -96
-334 -49 -91 -163 -218 -286 -316 -97 -77 -116 -110 -108 -190 6 -67 29 -114
135 -281 253 -395 509 -912 701 -1414 102 -264 131 -390 131 -560 l0 -91 92
-44 c134 -65 203 -114 218 -153 26 -72 71 -156 122 -227 l54 -75 355 -3 354
-2 118 118 119 119 -84 104 c-46 57 -106 136 -132 174 -94 134 -161 193 -371
323 -71 44 -144 95 -162 114 -17 18 -125 177 -238 353 -114 176 -227 345 -252
375 -61 74 -77 108 -118 252 -19 67 -51 168 -71 223 -130 359 -153 451 -125
503 6 12 39 40 74 63 129 88 305 224 377 294 81 78 102 88 225 105 44 6 97 16
118 21 33 9 42 7 59 -8 39 -34 51 -82 56 -219 6 -166 -8 -289 -55 -478 l-37
-150 53 -47 c65 -58 132 -91 331 -162 217 -78 376 -145 532 -223 73 -37 187
-88 254 -114 135 -52 218 -103 368 -227 158 -131 165 -135 253 -143 70 -7 80
-11 103 -38 14 -17 38 -35 53 -41 15 -6 27 -18 27 -27 0 -38 -151 -204 -186
-204 -41 0 -59 -115 -29 -187 9 -21 49 -89 89 -153 41 -63 91 -146 113 -185
l39 -70 302 -3 302 -2 -1 62 c0 35 -4 142 -8 238 l-8 175 -75 150 c-105 209
-141 301 -178 450 -43 173 -53 197 -116 254 -64 59 -187 121 -494 249 -472
198 -624 287 -824 481 -112 109 -136 144 -136 200 0 113 120 372 227 491 26
29 107 91 187 145 226 149 388 314 436 443 60 160 147 485 157 590 3 34 11 69
17 78 17 23 111 32 404 39 694 16 1005 48 1281 131 179 55 291 103 621 269
168 84 337 163 375 175 80 24 186 30 209 11 26 -22 36 -77 51 -276 20 -264 33
-383 56 -505 23 -129 24 -274 4 -522 -20 -234 -31 -283 -100 -457 -65 -164
-90 -271 -105 -455 -17 -218 -14 -304 16 -393 25 -75 26 -84 21 -248 -8 -244
-50 -497 -90 -543 -8 -10 -17 -40 -21 -67 -3 -28 -15 -73 -25 -100 -21 -55
-47 -174 -66 -303 l-12 -83 67 -57 c36 -31 81 -69 100 -83 31 -23 34 -32 41
-95 5 -38 8 -146 8 -240 1 -161 2 -173 24 -205 12 -19 40 -43 62 -54 38 -19
58 -20 444 -18 243 1 407 5 413 11 16 16 -68 170 -208 382 -45 69 -119 195
-163 281 l-81 156 0 169 c1 367 54 721 144 951 44 114 84 212 99 242 17 35
162 186 201 210 44 27 105 39 268 51 145 10 186 22 212 63 8 12 29 81 46 152
18 72 56 207 85 300 29 94 60 194 69 224 16 53 152 318 256 496 29 50 68 117
87 149 19 33 78 107 131 164 135 145 130 135 94 176 -36 41 -38 51 -57 289 -8
104 -20 201 -28 215 -9 19 -28 33 -69 47 -32 11 -75 37 -95 56 -21 20 -92 78
-158 129 -138 106 -185 149 -185 166 0 7 -16 21 -35 33 -33 19 -35 23 -35 76
0 71 10 90 116 216 125 151 153 195 164 265 18 117 32 373 33 609 l1 240 -68
150 c-96 212 -157 329 -230 437 -34 51 -133 198 -219 326 -246 364 -233 324
-262 819 -11 181 -22 287 -35 340 -13 54 -56 151 -136 308 -95 188 -119 246
-134 315 -10 47 -24 111 -31 143 -13 55 -12 61 8 95 25 44 77 87 114 96 19 4
34 0 50 -15 l24 -20 -37 6 c-39 6 -52 -3 -42 -29 7 -19 42 -20 95 -4 37 10 42
9 82 -19 23 -17 95 -58 161 -92 203 -105 227 -129 377 -371 46 -74 104 -158
130 -185 90 -95 304 -195 420 -195 48 0 62 5 94 30 21 17 46 30 57 30 26 0 79
28 195 104 189 123 245 180 284 293 38 108 53 212 53 368 0 227 -11 250 -294
635 -195 265 -333 471 -412 615 -36 66 -101 185 -144 265 -54 99 -94 160 -126
191 -52 50 -57 59 -30 59 25 0 87 40 112 73 13 16 27 47 32 69 5 22 28 86 52
142 50 115 69 191 64 256 -4 54 -5 54 -123 7 -70 -27 -92 -31 -182 -32 -101 0
-103 -1 -135 -32 -78 -74 -188 -135 -188 -104 0 17 112 111 179 150 77 45 95
74 113 182 11 61 10 76 -5 118 -9 27 -17 51 -17 53 0 2 18 28 40 58 22 29 37
57 34 61 -9 15 -65 9 -163 -17z m-70 -162 c-5 -10 -71 -90 -147 -178 -163
-189 -241 -285 -277 -339 -26 -38 -26 -40 -10 -65 51 -76 94 -156 136 -250 25
-58 59 -130 76 -160 31 -57 32 -70 0 -70 -22 0 -25 -13 -6 -27 13 -11 109 -37
170 -48 53 -9 49 7 -27 108 -69 93 -151 230 -191 321 -27 61 -30 76 -16 76 11
0 107 -129 165 -221 36 -57 300 -368 326 -384 23 -14 21 7 -9 96 -18 50 -29
94 -26 97 10 10 51 -48 106 -148 28 -52 94 -172 145 -266 86 -156 106 -204 87
-204 -4 0 -32 10 -61 22 l-54 23 -19 -24 c-21 -26 -55 -31 -314 -50 -154 -11
-201 -27 -248 -84 -57 -70 -160 -234 -257 -407 -50 -91 -95 -169 -100 -174
-32 -33 -15 54 55 273 82 260 97 333 111 554 l6 107 59 0 c33 0 61 5 65 12 4
7 -10 28 -38 52 -89 81 -166 197 -194 293 -20 71 -91 196 -144 255 -37 41 -39
42 -53 24 -13 -17 -18 -18 -63 -7 -27 7 -66 23 -86 37 -21 13 -42 24 -47 24
-5 0 -3 -25 5 -57 7 -32 13 -64 14 -70 0 -23 -18 -13 -37 20 -50 84 -163 380
-151 393 10 9 88 -36 132 -76 23 -21 62 -68 86 -104 25 -37 52 -66 61 -66 38
0 227 162 356 306 104 115 403 404 418 404 3 0 1 -8 -4 -18z m-1457 -86 c43
-18 57 -50 105 -237 23 -92 61 -207 94 -286 103 -243 144 -407 113 -448 -20
-28 -28 -17 -71 100 -73 196 -215 440 -294 503 -60 48 -73 82 -79 193 -5 106
10 157 51 177 30 15 42 14 81 -2z m-438 -112 c115 -82 150 -141 174 -292 17
-104 -10 -122 -131 -86 -81 24 -128 54 -155 99 -26 45 -51 167 -41 206 6 23
74 119 84 119 2 0 33 -21 69 -46z m1372 -55 c6 -34 -189 -279 -223 -279 -50 0
3 197 69 259 42 39 148 53 154 20z m-1685 -172 c123 -297 133 -336 96 -396
-32 -52 -10 -82 30 -40 11 12 24 18 30 14 24 -14 83 -150 106 -243 36 -142
111 -285 197 -377 68 -73 149 -135 175 -135 23 0 7 34 -80 169 -87 135 -164
295 -221 458 -45 132 -54 194 -32 228 27 42 68 34 126 -24 56 -56 99 -136 195
-367 36 -89 83 -186 103 -216 20 -30 49 -72 64 -94 26 -37 40 -87 53 -197 4
-28 16 -58 30 -74 l23 -28 15 53 c9 28 24 98 33 155 17 98 17 106 1 148 -10
26 -53 84 -108 144 -76 84 -100 119 -150 220 -88 180 -141 357 -125 420 15 58
54 23 174 -160 47 -71 144 -210 214 -308 70 -98 131 -190 135 -205 11 -38 7
-191 -7 -260 -6 -31 -24 -102 -40 -157 -52 -182 -61 -286 -34 -414 l7 -33 -26
17 c-40 26 -75 108 -87 205 -6 47 -17 90 -23 96 -7 7 -39 19 -72 29 -33 9
-109 38 -170 65 -60 27 -186 78 -280 115 -287 112 -365 158 -501 293 -113 113
-139 157 -94 157 21 0 26 6 33 43 4 23 12 42 17 42 5 0 53 -34 107 -75 136
-105 234 -175 246 -175 17 0 -2 60 -78 243 -41 99 -75 185 -75 192 0 6 -48 38
-106 71 -149 83 -156 93 -177 239 -9 65 -15 120 -13 122 11 11 232 133 240
133 6 0 28 -42 49 -93z m-408 -274 c19 -27 51 -80 72 -119 36 -69 37 -73 24
-112 -11 -32 -11 -50 -2 -87 15 -58 7 -83 -27 -91 -15 -3 -32 -7 -39 -9 -7 -2
-41 1 -75 7 -56 9 -68 16 -109 57 -53 55 -109 160 -109 206 0 24 6 35 24 43
13 6 37 28 52 49 58 79 86 103 121 103 28 0 38 -8 68 -47z m1986 -241 c71 -76
104 -140 136 -259 23 -89 26 -120 30 -343 6 -279 10 -254 -90 -480 -35 -77
-68 -174 -87 -250 -17 -69 -33 -132 -37 -140 -11 -28 -21 31 -22 128 -1 105
21 250 79 532 73 350 67 457 -40 729 -33 84 -60 154 -60 157 0 13 43 -22 91
-74z m-121 -41 c34 -20 34 -21 36 -98 1 -43 14 -131 28 -195 54 -245 46 -367
-48 -741 -35 -136 -66 -250 -69 -254 -30 -29 -23 136 15 357 43 252 43 411 -1
697 -31 204 -37 264 -24 276 3 4 11 0 17 -7 6 -8 27 -24 46 -35z m-201 -150
c19 -19 70 -164 90 -253 21 -95 30 -207 21 -265 -5 -32 -30 -132 -55 -223 -50
-184 -53 -226 -29 -379 22 -140 18 -147 -40 -86 -60 63 -122 156 -137 203 -6
20 -14 85 -16 143 -5 111 -2 131 52 339 29 110 32 212 11 340 -15 92 -29 134
-45 145 -20 12 -11 23 32 38 58 21 94 20 116 -2z m-2121 -27 c93 -27 196 -79
224 -112 36 -44 45 -102 21 -149 -15 -33 -22 -38 -49 -37 -38 2 -200 80 -266
129 -84 62 -95 105 -41 160 30 30 37 30 111 9z m417 -248 c18 -8 107 -58 197
-112 90 -53 233 -131 318 -172 479 -230 539 -262 626 -328 170 -129 404 -346
404 -374 0 -21 -29 -9 -146 61 -143 85 -227 128 -331 170 -104 42 -113 44
-298 85 -235 51 -375 95 -490 152 -74 36 -253 152 -372 239 -80 59 -101 79
-89 85 12 7 14 19 9 53 -7 55 8 80 73 124 55 36 54 36 99 17z m3249 -202 c23
-9 20 -34 -3 -34 -22 0 -35 15 -26 30 7 12 8 12 29 4z m-3837 -95 c15 -6 60
-19 98 -29 58 -14 71 -21 73 -40 4 -23 15 -29 160 -85 41 -16 144 -69 230
-117 87 -48 162 -90 167 -92 6 -1 2 -12 -8 -24 -18 -20 -18 -21 2 -31 62 -34
275 -99 591 -181 404 -105 444 -119 576 -206 156 -103 404 -319 404 -353 0
-13 -53 10 -192 82 -218 112 -370 156 -955 272 -392 78 -503 104 -555 131 -48
25 -305 222 -338 260 -32 37 -40 87 -19 126 8 15 7 30 -6 64 -26 68 -74 70
-75 3 0 -37 -20 -89 -33 -89 -7 0 -21 7 -31 15 -10 8 -53 22 -95 31 -82 18
-162 53 -199 87 -69 64 -70 155 -2 180 27 10 178 7 207 -4z m3623 -59 c98 -28
108 -33 153 -81 26 -28 47 -54 47 -59 0 -11 -8 -13 -155 -45 -159 -34 -265
-85 -333 -159 -53 -59 -71 -96 -45 -96 14 0 81 49 168 123 46 38 107 47 322
47 155 0 185 -2 189 -15 8 -20 -14 -45 -55 -62 -18 -8 -112 -32 -208 -53 -168
-38 -232 -61 -241 -88 -3 -9 14 -12 61 -12 87 0 166 16 199 40 75 55 241 -11
380 -152 100 -102 103 -141 8 -122 l-51 11 40 -41 c32 -32 43 -53 51 -95 12
-65 13 -241 2 -241 -16 0 -34 55 -39 124 l-6 69 -156 -6 c-154 -6 -348 -30
-364 -46 -4 -4 26 -47 67 -95 100 -117 138 -195 101 -209 -21 -9 -48 18 -123
118 -73 97 -114 131 -171 140 -57 9 -66 18 -65 63 1 46 32 94 89 138 27 20 56
29 128 40 52 8 149 25 217 39 67 14 138 25 156 25 24 0 34 5 34 15 0 20 -51
20 -330 -5 -265 -23 -361 -37 -413 -57 -34 -14 -39 -14 -56 1 -9 9 -39 19 -65
22 -66 10 -79 32 -65 110 14 75 68 215 121 316 32 60 39 81 30 90 -9 9 -17 7
-33 -8 -30 -27 -56 -81 -100 -211 -22 -63 -49 -133 -60 -156 -22 -41 -22 -41
-31 -17 -5 14 -9 59 -7 100 3 116 4 114 -26 94 -33 -21 -40 -13 -26 27 17 50
14 53 -24 25 -19 -15 -35 -25 -35 -22 0 24 86 196 116 233 64 78 197 152 314
173 71 14 176 3 290 -30z m469 -259 c53 -82 141 -262 141 -290 0 -27 -30 11
-97 123 -37 61 -109 172 -160 248 -51 75 -93 142 -93 150 1 23 151 -144 209
-231z m-4421 -562 c42 -16 115 -49 162 -72 82 -40 85 -43 92 -82 3 -22 9 -50
13 -62 6 -19 2 -22 -37 -28 -23 -3 -95 -2 -158 4 -210 19 -234 35 -245 160 -5
59 -4 85 5 96 20 24 84 18 168 -16z m390 -116 c-10 -2 -26 -2 -35 0 -10 3 -2
5 17 5 19 0 27 -2 18 -5z m262 -88 c107 -39 341 -158 435 -221 95 -63 162 -83
560 -164 492 -101 685 -158 927 -276 324 -159 426 -260 345 -342 l-27 -27 -67
23 c-37 13 -166 68 -287 122 -253 112 -303 129 -626 206 -403 96 -500 129
-890 304 -250 112 -368 160 -482 194 -48 15 -109 41 -135 59 -51 34 -96 91
-91 116 10 49 210 52 338 6z m-677 -366 c182 -37 216 -63 162 -127 -50 -60
-179 -87 -277 -58 -126 36 -176 137 -94 187 40 24 84 24 209 -2z m637 -102
c69 -25 218 -86 332 -136 267 -117 363 -150 645 -222 394 -100 575 -165 898
-323 307 -150 342 -172 414 -262 57 -72 70 -94 55 -94 -4 0 -63 25 -131 56
-69 31 -127 53 -130 51 -2 -3 43 -32 102 -64 242 -132 236 -156 -16 -65 -564
205 -1613 631 -1919 780 -69 33 -217 92 -330 130 -290 99 -301 105 -262 151
56 66 152 66 342 -2z m-411 -243 c131 -19 368 -80 522 -133 64 -22 202 -79
305 -127 376 -171 714 -313 864 -362 52 -17 192 -59 310 -92 529 -149 850
-282 967 -402 l37 -38 -39 0 c-70 0 -422 84 -980 233 -354 95 -616 195 -1156
442 -383 176 -766 325 -835 325 -14 0 -23 4 -20 9 9 13 -15 29 -84 56 -96 38
-126 75 -77 95 32 13 67 12 186 -6z m-3 -339 c119 -21 305 -84 417 -142 81
-41 232 -140 662 -431 195 -132 254 -149 855 -238 542 -80 793 -141 984 -239
135 -69 208 -125 373 -290 122 -121 158 -163 179 -210 21 -46 25 -63 17 -84
-20 -57 -81 -26 -318 165 -154 123 -278 205 -381 250 -133 59 -482 168 -701
220 -59 14 -126 31 -148 39 -22 7 -101 18 -175 24 -231 20 -367 49 -552 117
-118 44 -210 96 -533 303 -261 168 -420 262 -511 302 -27 12 -150 61 -274 108
-123 47 -225 90 -225 96 0 27 200 32 331 10z m-146 -155 c213 -70 389 -187
730 -485 151 -131 191 -163 278 -219 150 -97 427 -206 580 -227 61 -9 82 -16
100 -35 39 -44 30 -62 -35 -69 -86 -10 -317 -53 -347 -65 -14 -5 -26 -14 -26
-20 0 -18 -35 -10 -82 19 -25 16 -170 150 -323 297 -438 425 -522 496 -676
578 -91 49 -321 141 -434 175 -89 26 -114 43 -96 64 18 22 44 26 146 22 67 -3
115 -12 185 -35z m-265 -201 c269 -48 348 -72 359 -107 7 -20 19 -27 109 -67
142 -61 307 -205 443 -385 134 -178 181 -268 250 -483 25 -78 68 -189 94 -247
52 -112 143 -378 181 -525 32 -123 32 -295 1 -408 -26 -92 -74 -217 -83 -217
-10 0 -57 110 -68 160 -11 49 -27 226 -36 410 -13 237 -30 328 -91 488 -31 81
-78 210 -106 287 -145 408 -270 541 -760 809 -274 149 -508 293 -508 313 0 7
76 -3 215 -28z m-233 -173 c84 -31 167 -73 323 -164 248 -144 384 -243 537
-394 121 -119 144 -159 226 -398 98 -286 146 -460 183 -665 18 -99 22 -162 23
-360 2 -216 4 -247 23 -310 38 -122 73 -364 59 -402 -7 -17 -8 -17 -17 -1 -53
94 -270 916 -319 1207 -48 286 -96 426 -208 604 -131 209 -251 330 -622 626
-177 142 -290 246 -290 268 0 18 10 17 82 -11z m-207 -182 c140 -69 542 -423
691 -608 126 -157 169 -276 263 -722 33 -159 70 -317 82 -351 11 -34 49 -109
84 -168 105 -178 171 -413 182 -650 5 -109 3 -137 -11 -170 l-17 -40 -15 27
c-8 15 -46 119 -84 231 -38 111 -117 319 -175 462 -177 432 -193 481 -245 729
-74 357 -127 504 -240 657 -59 79 -293 308 -473 464 -127 109 -151 140 -126
156 20 13 25 12 84 -17z m-217 -206 c111 -41 258 -159 420 -338 185 -204 252
-332 422 -810 97 -272 133 -358 251 -594 155 -310 200 -470 203 -719 l1 -129
-28 -24 c-28 -24 -61 -30 -84 -16 -7 4 -31 102 -53 217 -49 254 -64 315 -102
425 -31 86 -266 618 -338 765 -93 186 -334 450 -480 525 -56 29 -1129 378
-1225 399 -94 20 -230 40 -525 76 -162 20 -299 41 -304 45 -20 19 63 25 359
24 334 -1 555 -15 731 -44 135 -23 177 -37 324 -105 214 -100 547 -202 694
-212 l79 -6 -23 41 c-31 55 -145 185 -313 356 -75 77 -137 144 -137 148 0 12
63 0 128 -24z m-227 -90 c120 -82 255 -183 264 -198 11 -17 -22 -11 -133 25
-144 46 -307 86 -573 140 -122 25 -229 49 -237 54 -20 11 41 18 273 31 208 11
274 16 291 18 6 1 58 -30 115 -70z m-1536 -199 c64 -9 337 -78 835 -209 411
-108 728 -246 910 -395 143 -117 311 -310 450 -516 54 -80 153 -216 219 -302
195 -253 251 -344 299 -482 66 -193 67 -487 2 -460 -8 4 -28 27 -45 53 -16 26
-40 51 -52 57 -26 11 -41 39 -73 140 -13 39 -57 135 -98 215 -40 80 -100 212
-133 293 -69 173 -96 229 -180 369 -145 241 -297 446 -353 475 -17 9 -52 34
-79 55 -172 144 -505 278 -1022 412 -137 36 -376 99 -530 141 -154 41 -341 87
-415 102 -179 34 -210 42 -210 53 0 5 17 11 38 13 57 8 358 -2 437 -14z m5004
-15 c382 -56 677 -159 866 -301 119 -90 290 -299 381 -467 36 -66 39 -77 38
-151 0 -85 -20 -150 -49 -161 -22 -9 -50 19 -180 181 -124 155 -265 296 -367
368 -83 59 -192 110 -378 176 -346 123 -317 110 -301 139 8 16 8 23 -1 29 -36
23 -457 12 -671 -19 -148 -20 -189 -93 -203 -356 l-6 -117 43 50 c24 28 93
101 153 163 l111 113 150 25 c214 36 292 36 379 0 141 -60 337 -212 381 -297
28 -54 45 -109 34 -109 -6 0 -68 40 -137 89 -70 48 -146 98 -169 110 -60 30
-150 29 -217 -3 -38 -18 -95 -29 -220 -45 -225 -28 -239 -33 -312 -106 -102
-101 -162 -238 -190 -435 -19 -137 -48 -240 -87 -315 -36 -68 -119 -159 -139
-153 -35 12 -17 185 34 327 l30 86 9 340 c12 461 25 569 82 649 32 45 90 64
314 101 240 40 316 57 393 84 67 25 93 25 229 5z m-5264 -134 c300 -34 527
-95 905 -245 139 -55 308 -130 319 -141 13 -13 -31 -24 -100 -24 -222 0 -410
29 -852 131 -464 108 -505 113 -854 114 l-302 0 54 28 c115 57 360 126 460
128 33 1 74 5 90 9 45 11 178 11 280 0z m-139 -281 c43 -6 130 -26 193 -45
415 -122 628 -181 866 -238 149 -35 317 -81 375 -101 216 -76 642 -306 804
-435 88 -70 136 -132 266 -344 131 -212 218 -375 246 -457 39 -115 30 -237
-21 -279 -10 -8 -41 -16 -69 -17 -28 -1 -53 -2 -56 -3 -3 0 -14 -16 -24 -35
-23 -42 -33 -44 -42 -7 -74 310 -209 717 -266 800 -41 59 -160 159 -308 257
-163 109 -277 168 -485 253 -93 39 -208 87 -255 107 -279 121 -485 192 -752
260 -226 57 -370 70 -708 62 -275 -7 -301 -10 -560 -72 -279 -65 -360 -76
-360 -46 0 10 12 14 218 77 67 20 120 39 117 42 -3 3 -77 -8 -165 -23 -224
-40 -227 -24 -16 80 253 124 462 170 793 174 72 0 166 -4 209 -10z m5904 -122
c84 -50 232 -169 320 -257 102 -102 174 -201 221 -305 33 -74 72 -207 67 -233
-2 -11 -46 34 -133 138 -71 85 -210 247 -308 360 -214 247 -261 306 -252 320
8 13 38 5 85 -23z m-392 -200 c6 -31 -48 -64 -270 -168 -188 -87 -230 -111
-270 -151 -51 -52 -96 -153 -118 -263 -29 -148 -81 -287 -124 -330 -32 -32
-60 -32 -91 0 -20 19 -25 34 -25 73 0 89 68 297 157 479 86 176 255 285 560
362 128 32 174 32 181 -2z m-6698 -53 c0 -17 -26 -19 -36 -3 -7 12 15 31 28
23 4 -3 8 -12 8 -20z m1062 -3 c18 -11 96 -42 173 -69 184 -66 297 -111 545
-220 227 -99 448 -184 765 -292 420 -143 500 -186 656 -347 179 -185 329 -441
329 -561 0 -45 -51 -132 -77 -132 -40 0 -107 46 -171 118 -138 155 -219 235
-277 273 -122 81 -455 235 -920 426 -381 157 -513 217 -872 397 -321 161 -427
205 -563 230 -157 30 -288 17 -544 -54 -212 -58 -201 -57 -236 -20 -23 25 -28
36 -19 46 24 29 400 160 544 189 124 24 223 32 437 34 177 1 200 -1 230 -18z
m5793 -21 c23 -9 26 -14 20 -37 -8 -35 -25 -58 -179 -251 -71 -90 -180 -232
-241 -315 -119 -164 -186 -226 -313 -289 -100 -50 -108 -11 -28 145 99 194
246 387 432 567 135 130 189 170 242 180 20 4 38 8 39 9 1 0 14 -4 28 -9z
m491 -252 c151 -161 220 -285 259 -471 17 -78 20 -167 5 -167 -18 0 -90 127
-275 484 -59 113 -105 213 -102 220 10 26 45 5 113 -66z m-296 17 c26 -31 7
-66 -162 -289 -61 -80 -116 -167 -144 -226 -25 -52 -53 -111 -62 -130 -45 -94
-258 -260 -299 -234 -31 19 -25 56 22 144 25 47 62 119 81 160 57 117 201 304
350 454 127 128 182 159 214 121z m-6510 -115 c78 -13 164 -53 505 -235 138
-74 340 -173 450 -220 317 -137 461 -217 588 -327 107 -92 222 -257 241 -344
13 -60 -47 -154 -98 -154 -14 0 -29 -8 -35 -17 -9 -17 -13 -16 -58 7 -26 14
-104 66 -173 116 -223 161 -300 204 -451 253 -196 63 -260 72 -574 81 -447 13
-508 28 -910 222 -232 112 -382 178 -402 178 -4 0 -14 14 -22 31 -12 28 -12
38 3 84 9 29 26 65 38 80 30 39 53 33 290 -78 526 -246 630 -275 1038 -296
115 -6 221 -7 280 -1 52 5 106 10 120 10 23 1 23 2 5 10 -11 4 -81 22 -155 39
-173 40 -240 70 -490 218 -283 167 -288 169 -495 224 -135 35 -155 44 -155 64
0 16 28 33 85 51 49 16 285 18 375 4z m6687 -172 c18 -14 16 -99 -1 -123 -8
-11 -43 -50 -78 -87 -36 -37 -100 -126 -148 -204 -50 -82 -108 -162 -142 -195
-63 -64 -157 -114 -231 -125 l-48 -6 19 48 c48 128 402 648 461 679 65 33 137
39 168 13z m182 -327 c27 -17 3 -78 -84 -217 -91 -145 -169 -235 -245 -284
-70 -45 -90 -46 -165 -12 -36 17 -65 35 -65 40 0 6 19 32 43 58 24 27 91 112
149 190 112 149 149 186 213 215 42 19 130 25 154 10z m-5096 -249 c128 -66
240 -137 310 -195 53 -44 126 -141 157 -208 18 -41 18 -45 2 -57 -9 -7 -24
-27 -32 -45 -34 -73 -138 -31 -220 88 -45 66 -72 126 -67 151 3 19 0 24 -17
24 -31 0 -138 92 -221 189 -92 109 -93 111 -55 111 17 0 78 -25 143 -58z
m5326 44 c8 -9 8 -21 2 -37 -37 -96 -352 -410 -440 -439 -37 -12 -43 -11 -61
5 -11 10 -20 26 -20 36 0 36 309 351 414 423 42 28 87 34 105 12z m-7564 -63
c61 -19 226 -82 368 -139 307 -124 430 -163 665 -209 97 -19 258 -50 358 -69
311 -61 427 -103 544 -199 96 -79 100 -90 100 -258 0 -79 -4 -150 -9 -158 -14
-21 -34 -10 -200 113 -259 192 -335 222 -661 261 -297 35 -383 48 -580 86
-372 73 -702 161 -729 193 -20 24 6 30 144 36 l130 5 -73 43 c-88 53 -190 129
-232 174 -26 28 -30 39 -26 73 2 22 9 53 15 68 13 34 21 33 186 -20z m2714
-80 c118 -66 225 -173 274 -273 47 -97 54 -128 32 -136 -20 -8 -69 36 -95 86
-10 19 -73 94 -140 165 -146 157 -186 205 -169 205 7 0 51 -21 98 -47z m4995
-25 c3 -13 6 -37 6 -54 0 -34 13 -44 56 -44 27 0 104 -29 104 -39 0 -3 -57
-28 -127 -55 -135 -51 -241 -104 -335 -167 -70 -48 -133 -66 -179 -53 -55 16
-50 43 18 102 201 173 351 300 373 315 36 25 76 22 84 -5z m337 -284 c52 -26
64 -109 19 -131 -58 -27 -459 -103 -546 -103 -70 0 -84 7 -84 39 0 74 176 169
370 200 130 21 192 20 241 -5z m-7987 -271 c97 -45 106 -47 221 -54 116 -6
125 -8 292 -72 l171 -65 289 -12 c358 -13 539 -27 623 -46 98 -23 284 -131
364 -213 37 -37 38 -42 27 -69 -7 -16 -25 -42 -41 -57 l-28 -27 -164 45 c-182
52 -225 62 -218 54 3 -2 59 -33 125 -68 197 -102 355 -212 355 -245 0 -8 -2
-14 -5 -14 -3 0 -63 29 -133 64 -348 174 -482 203 -1282 276 -378 35 -439 45
-417 66 12 12 92 23 177 24 98 2 196 13 206 23 13 13 -28 35 -126 67 -175 59
-467 214 -522 276 -17 20 -35 94 -23 94 4 0 53 -21 109 -47z m8036 -53 c20 -5
44 -16 55 -24 18 -13 18 -15 2 -39 -26 -40 -74 -48 -257 -45 l-165 3 -3 64 -3
64 168 -6 c92 -4 184 -12 203 -17z m-4885 -141 c8 -23 1 -34 -14 -24 -13 8
-15 45 -2 45 5 0 13 -9 16 -21z m4570 -11 c135 -44 288 -139 270 -168 -8 -13
-185 -13 -254 0 -29 5 -64 19 -79 31 -42 33 -102 119 -102 146 0 24 1 25 52
18 29 -4 79 -16 113 -27z m-329 -23 c36 -23 44 -54 44 -159 0 -172 -75 -394
-203 -599 -38 -62 -96 -160 -129 -220 -60 -108 -78 -124 -125 -115 -47 9 -15
339 54 553 8 28 44 113 78 190 62 139 87 221 100 324 l7 54 75 -6 c43 -3 85
-12 99 -22z m355 -235 c78 -22 146 -89 135 -133 -12 -50 -123 -73 -209 -43
-52 19 -102 55 -121 87 -16 27 -22 80 -9 92 10 11 164 8 204 -3z m-6981 -239
c135 -23 382 -59 550 -81 374 -49 449 -63 531 -96 97 -39 129 -62 129 -90 0
-29 -50 -134 -87 -183 -42 -54 -134 -79 -177 -48 -15 11 -17 17 -7 35 15 29
21 27 -174 47 -257 26 -415 55 -787 146 -233 57 -256 69 -332 166 -59 74 -81
116 -72 138 6 16 16 17 94 12 48 -3 197 -24 332 -46z m6831 -39 c48 -31 99
-86 99 -107 0 -26 -33 -38 -109 -43 l-79 -4 54 -57 c102 -106 86 -135 -76
-146 -61 -3 -110 -11 -110 -15 0 -5 10 -15 23 -21 46 -24 110 -84 123 -115 19
-45 5 -77 -46 -109 -49 -31 -52 -38 -79 -190 -33 -187 -52 -235 -92 -235 -12
0 -61 16 -110 35 -65 26 -93 33 -106 26 -16 -8 -108 -102 -190 -193 -40 -45
-117 -67 -164 -48 -37 16 -59 56 -59 107 1 66 36 246 61 307 34 84 46 88 112
43 60 -42 79 -44 190 -23 168 32 181 50 237 309 60 275 125 451 182 492 35 24
88 19 139 -13z m-6881 -391 c36 -10 120 -40 188 -65 67 -25 216 -69 329 -96
113 -28 220 -57 237 -64 35 -15 86 -60 86 -75 0 -15 -84 -56 -155 -76 -43 -13
-78 -16 -130 -12 -115 10 -267 57 -310 97 -11 10 -42 26 -70 35 -78 26 -353
165 -386 195 -56 53 -31 78 81 79 36 1 94 -7 130 -18z m-99 -303 c124 -97 209
-153 305 -201 78 -39 91 -56 72 -95 -40 -80 -190 -110 -379 -77 -151 26 -339
91 -339 116 0 9 26 11 104 6 77 -4 108 -2 121 7 17 12 16 14 -9 32 -82 57 -96
75 -96 119 0 65 63 175 101 175 9 0 64 -37 120 -82z m6086 15 c-3 -27 -26
-113 -51 -193 -25 -80 -51 -176 -58 -214 -12 -67 -11 -70 10 -84 45 -30 20
-81 -55 -108 -78 -28 -196 -4 -214 43 -12 32 -12 156 1 224 12 66 89 222 137
278 41 49 72 66 150 85 89 22 87 23 80 -31z m-9972 -203 c-3 -5 -21 -10 -40
-10 -19 0 -37 5 -40 10 -4 6 12 10 40 10 28 0 44 -4 40 -10z m355 -26 c9 -10
-25 -24 -57 -24 -18 0 -67 6 -110 12 l-78 13 45 6 c46 7 191 2 200 -7z m1090
-87 c0 -28 -58 -99 -116 -143 -32 -25 -124 -77 -204 -116 -80 -39 -233 -117
-341 -174 -107 -57 -202 -104 -210 -104 -26 1 95 101 242 199 81 54 223 137
317 184 94 47 199 104 234 126 69 44 78 48 78 28z m2032 -51 c121 -37 329
-162 368 -222 35 -53 -10 -93 -150 -134 -41 -12 -99 -35 -129 -51 -67 -36 -91
-36 -166 -1 -82 39 -92 53 -63 85 32 35 78 48 196 54 56 3 102 9 101 12 0 3
-46 28 -101 55 -101 48 -198 126 -198 158 0 26 39 52 85 57 6 0 31 -6 57 -13z
m295 -475 c91 -44 163 -103 163 -134 0 -20 -4 -20 -137 -13 -221 11 -343 34
-343 65 0 5 16 23 35 39 37 33 89 52 143 52 22 0 32 5 32 15 0 23 19 19 107
-24z m41 -266 c80 -19 157 -58 178 -91 16 -24 16 -26 -5 -47 -19 -20 -32 -22
-124 -22 -96 0 -107 2 -169 33 -37 18 -76 45 -88 59 -22 29 -27 69 -7 76 26
11 155 6 215 -8z m207 -279 c52 -14 95 -44 95 -65 -1 -28 -24 -36 -112 -40
-185 -7 -315 56 -235 114 27 20 159 15 252 -9z m2589 -102 c10 -26 -3 -34 -55
-34 -62 0 -71 -17 -34 -66 15 -19 24 -41 21 -49 -8 -22 -111 -49 -135 -36 -25
14 -51 50 -51 73 0 30 59 86 113 107 65 25 132 27 141 5z m299 -175 c63 -52
87 -119 102 -284 7 -78 41 -187 84 -273 16 -31 32 -68 36 -81 7 -23 6 -24 -36
-17 -98 16 -192 94 -249 206 l-31 61 46 51 c26 29 53 64 61 79 19 37 11 41
-131 69 -181 35 -206 49 -186 102 13 35 79 95 134 123 45 22 50 23 91 9 23 -8
59 -28 79 -45z m-2735 16 c55 -22 57 -50 5 -64 -58 -15 -223 -32 -244 -26 -41
13 -36 87 8 104 38 15 180 6 231 -14z m49 -210 c91 -27 94 -68 5 -81 -26 -4
-65 -13 -87 -21 -32 -11 -49 -12 -88 -2 -57 13 -78 43 -59 84 13 29 31 31 73
10 28 -15 31 -15 56 5 31 24 35 24 100 5z m214 -302 c54 -36 109 -120 149
-231 41 -111 46 -198 13 -234 -12 -13 -28 -41 -35 -63 -15 -45 -61 -81 -116
-91 -34 -7 -39 -4 -78 41 -58 65 -114 177 -114 226 0 33 7 48 45 88 25 26 45
50 45 53 0 3 -46 24 -102 47 -127 52 -142 63 -134 93 7 28 56 61 133 88 75 26
137 21 194 -17z m5452 -291 c22 -24 156 -304 163 -340 l6 -29 -69 -6 c-125
-12 -116 -16 -163 70 -73 135 -130 267 -120 277 9 9 130 44 156 45 6 1 18 -7
27 -17z m-2940 -38 c97 -49 258 -210 229 -228 -5 -3 -53 29 -107 70 -92 69
-128 88 -93 47 124 -145 161 -203 128 -203 -30 0 -260 261 -260 295 0 7 12 18
28 23 37 14 39 14 75 -4z m-1882 -365 c82 -41 199 -189 199 -250 0 -30 -34
-84 -70 -110 -34 -25 -132 -39 -277 -39 l-123 0 -42 38 c-89 81 -129 242 -73
298 29 29 97 60 175 79 68 18 160 11 211 -16z"/>
<path d="M11004 11810 c-16 -10 -47 -35 -69 -55 -38 -34 -39 -36 -20 -47 80
-47 178 -178 254 -340 53 -113 119 -200 182 -237 36 -21 57 -25 165 -29 145
-5 155 1 110 69 -35 53 -72 67 -205 81 -106 10 -108 11 -103 34 3 16 0 24 -10
24 -26 0 -47 34 -78 125 -34 101 -113 283 -145 335 -36 57 -46 62 -81 40z"/>
<path d="M11460 10996 c-151 -16 -200 -30 -200 -57 0 -28 36 -95 55 -103 9 -3
48 3 88 14 97 26 219 40 352 40 60 0 115 4 122 8 8 5 -11 24 -55 57 l-67 50
-85 2 c-47 1 -141 -4 -210 -11z"/>
<path d="M11535 10184 c-31 -33 -65 -96 -65 -119 0 -23 51 17 91 72 28 40 30
46 16 60 -14 14 -18 13 -42 -13z"/>
<path d="M9151 7529 c39 -50 107 -83 157 -74 22 3 48 12 57 19 15 10 1 17 -91
43 -60 17 -118 35 -129 39 -18 7 -17 4 6 -27z"/>
<path d="M11090 3282 c0 -5 7 -16 16 -23 14 -12 16 -11 13 5 -4 20 -29 35 -29
18z"/>
<path d="M11910 6161 c0 -12 5 -21 10 -21 6 0 10 6 10 14 0 8 -4 18 -10 21 -5
3 -10 -3 -10 -14z"/>
<path d="M5433 3 c48 -2 125 -2 170 0 45 1 6 3 -88 3 -93 0 -130 -2 -82 -3z"/>
</g>
</svg>
